<svg xmlns="http://www.w3.org/2000/svg" xmlns:xlink="http://www.w3.org/1999/xlink" viewBox="0,0,256,256" width="48px" height="48px" fill-rule="nonzero"><g fill="#2c3e50" fill-rule="nonzero" stroke="none" stroke-width="1" stroke-linecap="butt" stroke-linejoin="miter" stroke-miterlimit="10" stroke-dasharray="" stroke-dashoffset="0" font-family="none" font-weight="none" font-size="none" text-anchor="none" style="mix-blend-mode: normal"><g transform="scale(4,4)"><path d="M22,12c-5.514,0 -10,4.486 -10,10v1c0,1.104 0.896,2 2,2c1.104,0 2,-0.896 2,-2v-1c0,-3.309 2.691,-6 6,-6h20c3.309,0 6,2.691 6,6v2h-2.89258c-0.894,0 -1.42211,1.00328 -0.91211,1.73828l4.89453,7.07422c0.44,0.637 1.38126,0.637 1.82227,0l4.89453,-7.07422c0.508,-0.735 -0.01811,-1.73828 -0.91211,-1.73828h-2.89453v-2c0,-5.514 -4.486,-10 -10,-10zM14,30.70898c-0.34563,0 -0.69161,0.16002 -0.91211,0.47852l-4.89258,7.07422c-0.508,0.735 0.01811,1.73828 0.91211,1.73828h2.89258v2c0,5.514 4.486,10 10,10h20c5.514,0 10,-4.486 10,-10v-1c0,-1.104 -0.896,-2 -2,-2c-1.104,0 -2,0.896 -2,2v1c0,3.309 -2.691,6 -6,6h-20c-3.309,0 -6,-2.691 -6,-6v-2h2.89258c0.894,0 1.42211,-1.00328 0.91211,-1.73828l-4.89453,-7.07422c-0.22,-0.3185 -0.56453,-0.47852 -0.91016,-0.47852z"></path></g></g></svg>