<svg xmlns="http://www.w3.org/2000/svg" xmlns:xlink="http://www.w3.org/1999/xlink" viewBox="0,0,256,256" width="48px" height="48px" fill-rule="nonzero"><g fill="#2c3e50" fill-rule="nonzero" stroke="none" stroke-width="1" stroke-linecap="butt" stroke-linejoin="miter" stroke-miterlimit="10" stroke-dasharray="" stroke-dashoffset="0" font-family="none" font-weight="none" font-size="none" text-anchor="none" style="mix-blend-mode: normal"><g transform="scale(4,4)"><path d="M29,7c-3.314,0 -6,2.686 -6,6h-8c-3.314,0 -6,2.686 -6,6v26c0,3.314 2.686,6 6,6h34c3.314,0 6,-2.686 6,-6v-26c0,-3.314 -2.686,-6 -6,-6h-8c0,-3.314 -2.686,-6 -6,-6zM29,11h6c1.104,0 2,0.895 2,2h-10c0,-1.105 0.896,-2 2,-2zM15,17h34c1.105,0 2,0.895 2,2v8.32813c-3.1397,0.53726 -10.72306,1.67188 -19,1.67188c-8.27428,0 -15.85792,-1.13393 -19,-1.67187v-8.32812c0,-1.105 0.895,-2 2,-2zM13,31.38477c2.85152,0.47092 7.99418,1.18956 14,1.48047v0.13477c0,1.105 0.895,2 2,2h5c1.105,0 2,-0.895 2,-2v-0.08203c6.43805,-0.25237 11.98886,-1.03614 15,-1.5332v13.61523c0,1.105 -0.895,2 -2,2h-34c-1.105,0 -2,-0.895 -2,-2z"></path></g></g></svg>